<?xml version="1.0" encoding="iso-8859-1"?>
<!-- Uploaded to: SVG Repo, www.svgrepo.com, Generator: SVG Repo Mixer Tools -->
<svg height="800px" width="800px" version="1.1" id="Layer_1" xmlns="http://www.w3.org/2000/svg" xmlns:xlink="http://www.w3.org/1999/xlink" 
	 viewBox="0 0 473.931 473.931" xml:space="preserve">
<circle style="fill:#F9A11C;" cx="236.966" cy="236.966" r="236.966"/>
<path style="fill:#F09520;" d="M404.522,69.38c92.541,92.549,92.549,242.59,0,335.142c-92.541,92.541-242.593,92.541-335.142,0
	L404.522,69.38z"/>
<path style="fill:#F9A11C;" d="M332.339,453.89c0.123-0.06,0.254-0.116,0.389-0.176l-0.382-0.382
	C332.347,453.516,332.339,453.707,332.339,453.89z"/>
<path style="fill:#DF8326;" d="M390.872,417.015c34.664-29.657,60.665-69.107,73.686-114.109l-80.676-80.044l-6.548,6.548
	l-55.808-56.437l-38.806,38.802l12.651,12.647l-12.329,12.337l-58.102-58.102l-0.045,27.158l-26.454-26.454l-0.045,28.647
	L172.095,181.7l-0.176,44.729l-26.024-26.02l0.052,44.793l-26.63-26.63l-0.236,34.686l-25.96-25.96l-0.475,52.452l189.786,189.782
	c17.392-3.375,34.091-8.673,49.908-15.633c0-0.183,0.007-0.374,0.007-0.554l0.382,0.382c9.485-4.202,18.671-8.962,27.457-14.316
	c0.007-2.361,4.187-2.683,4.187-2.683c9.295-5.942,18.148-12.505,26.499-19.652C390.872,417.049,390.872,417.027,390.872,417.015z"
	/>
<path style="fill:#FFFFFF;" d="M80.568,253.396c0,10.623,4.838,20.123,12.46,26.533V226.87
	C85.406,233.258,80.568,242.773,80.568,253.396 M106.206,219.896v66.989c3.121,0.868,6.402,1.347,9.785,1.347h3.398v-69.518
	c-1.134-0.094-2.264-0.157-3.42-0.157C112.578,218.556,109.312,219.028,106.206,219.896 M135.321,224.244
	c-0.898-0.576-1.796-1.108-2.754-1.598v65.586h13.175V200.51C140.496,207.353,136.84,215.439,135.321,224.244 M158.924,188.173
	v100.058h13.175V181.685C167.395,183.271,162.969,185.479,158.924,188.173 M185.277,178.957v109.274h13.19v-108.87
	c-2.705-0.4-5.489-0.61-8.318-0.61C188.502,178.751,186.878,178.826,185.277,178.957 M218.912,186.661
	c-4.303-2.552-8.939-4.561-13.856-5.901v107.475h19.768V178.74C222.661,181.225,220.678,183.885,218.912,186.661 M231.417,172.125
	v116.107h125.211v-0.153c26.361-1.688,38.252-18.039,38.252-37.998c0-21.077-15.932-38.155-37.38-38.155
	c-5.504,0-10.035,1.141-14.821,3.192c-3.427-33.459-31.82-59.591-66.775-59.591C258.806,155.526,243.263,161.786,231.417,172.125"/>
</svg>